# xmcd
#
# Track frame offsets:
#	150
#	16322
#	33052
#	45432
#	61227
#	78495
#	96347
#	110232
#	124760
#	139930
#	157542
#	174997
#	198127
#
# Disc length: 2867 seconds
#
# Revision: 0
# Processed by: cddbd v1.5.2PL0 Copyright (c) Steve Scherf et al.
# Submitted via: dBpowerAMP V4.0
#
DISCID=9b0b310d
DTITLE=Martha Trachtenberg - It;s About Time
DYEAR=1999
DGENRE=folk
TTITLE0=I was a star last night
TTITLE1=Why  do you wake me now
TTITLE2=Some things are better left unsaid
TTITLE3=Ticket back
TTITLE4=Near miss
TTITLE5=Close to the bone
TTITLE6=The touch of your hand
TTITLE7=If you were here
TTITLE8=Fear
TTITLE9=Something 'bout traveling
TTITLE10=Words get in the way
TTITLE11=I choose you
TTITLE12=It's about time
EXTD=
EXTT0=
EXTT1=
EXTT2=
EXTT3=
EXTT4=
EXTT5=
EXTT6=
EXTT7=
EXTT8=
EXTT9=
EXTT10=
EXTT11=
EXTT12=
PLAYORDER=
